  0
SECTION
  2
HEADER
  9
$ACADVER
  1
AC1014
  9
$HANDSEED
  5
FFFF
  9
$MEASUREMENT
 70
     1
  0
ENDSEC
  0
SECTION
  2
TABLES
  0
TABLE
  2
VPORT
  5
8
330
0
100
AcDbSymbolTable
 70
     4
  0
VPORT
  5
2E
330
8
100
AcDbSymbolTableRecord
100
AcDbViewportTableRecord
  2
*ACTIVE
 70
     0
 10
0.0
 20
0.0
 11
1.0
 21
1.0
 12
210.0
 22
148.5
 13
0.0
 23
0.0
 14
10.0
 24
10.0
 15
10.0
 25
10.0
 16
0.0
 26
0.0
 36
1.0
 17
0.0
 27
0.0
 37
0.0
 40
341.0
 41
1.24
 42
50.0
 43
0.0
 44
0.0
 50
0.0
 51
0.0
 71
     0
 72
   100
 73
     1
 74
     3
 75
     0
 76
     0
 77
     0
 78
     0
  0
ENDTAB
  0
TABLE
  2
LTYPE
  5
5
330
0
100
AcDbSymbolTable
 70
     1
  0
LTYPE
  5
14
330
5
100
AcDbSymbolTableRecord
100
AcDbLinetypeTableRecord
  2
BYBLOCK
 70
     0
  3

 72
    65
 73
     0
 40
0.0
  0
LTYPE
  5
15
330
5
100
AcDbSymbolTableRecord
100
AcDbLinetypeTableRecord
  2
BYLAYER
 70
     0
  3

 72
    65
 73
     0
 40
0.0
  0
LTYPE
  5
16
330
5
100
AcDbSymbolTableRecord
100
AcDbLinetypeTableRecord
  2
CONTINUOUS
 70
     0
  3
Solid line
 72
    65
 73
     0
 40
0.0
  0
ENDTAB
  0
TABLE
  2
LAYER
  5
2
100
AcDbSymbolTable
 70
2
  0
LAYER
  5
50
100
AcDbSymbolTableRecord
100
AcDbLayerTableRecord
  2
0
 70
0
  6
CONTINUOUS
  0
LAYER
  5
51
100
AcDbSymbolTableRecord
100
AcDbLayerTableRecord
  2
Calque_1
 70
0
  6
CONTINUOUS
  0
ENDTAB
  0
TABLE
  2
STYLE
  5
3
330
0
100
AcDbSymbolTable
 70
     1
  0
STYLE
  5
11
330
3
100
AcDbSymbolTableRecord
100
AcDbTextStyleTableRecord
  2
STANDARD
 70
     0
 40
0.0
 41
1.0
 50
0.0
 71
     0
 42
2.5
  3
txt
  4

  0
ENDTAB
  0
TABLE
  2
VIEW
  5
6
330
0
100
AcDbSymbolTable
 70
     0
  0
ENDTAB
  0
TABLE
  2
UCS
  5
7
330
0
100
AcDbSymbolTable
 70
     0
  0
ENDTAB
  0
TABLE
  2
APPID
  5
9
330
0
100
AcDbSymbolTable
 70
     2
  0
APPID
  5
12
330
9
100
AcDbSymbolTableRecord
100
AcDbRegAppTableRecord
  2
ACAD
 70
     0
  0
ENDTAB
  0
TABLE
  2
DIMSTYLE
  5
A
330
0
100
AcDbSymbolTable
 70
     1
  0
DIMSTYLE
105
27
330
A
100
AcDbSymbolTableRecord
100
AcDbDimStyleTableRecord
  2
ISO-25
 70
     0
  3

  4

  5

  6

  7

 40
1.0
 41
2.5
 42
0.625
 43
3.75
 44
1.25
 45
0.0
 46
0.0
 47
0.0
 48
0.0
140
2.5
141
2.5
142
0.0
143
0.03937007874016
144
1.0
145
0.0
146
1.0
147
0.625
 71
     0
 72
     0
 73
     0
 74
     0
 75
     0
 76
     0
 77
     1
 78
     8
170
     0
171
     3
172
     1
173
     0
174
     0
175
     0
176
     0
177
     0
178
     0
270
     2
271
     2
272
     2
273
     2
274
     3
340
11
275
     0
280
     0
281
     0
282
     0
283
     0
284
     8
285
     0
286
     0
287
     3
288
     0
  0
ENDTAB
  0
TABLE
  2
BLOCK_RECORD
  5
1
330
0
100
AcDbSymbolTable
 70
     1
  0
BLOCK_RECORD
  5
1F
330
1
100
AcDbSymbolTableRecord
100
AcDbBlockTableRecord
  2
*MODEL_SPACE
  0
BLOCK_RECORD
  5
1B
330
1
100
AcDbSymbolTableRecord
100
AcDbBlockTableRecord
  2
*PAPER_SPACE
  0
ENDTAB
  0
ENDSEC
  0
SECTION
  2
BLOCKS
  0
BLOCK
  5
20
330
1F
100
AcDbEntity
  8
0
100
AcDbBlockBegin
  2
*MODEL_SPACE
 70
     0
 10
0.0
 20
0.0
 30
0.0
  3
*MODEL_SPACE
  1

  0
ENDBLK
  5
21
330
1F
100
AcDbEntity
  8
0
100
AcDbBlockEnd
  0
BLOCK
  5
1C
330
1B
100
AcDbEntity
 67
     1
  8
0
100
AcDbBlockBegin
  2
*PAPER_SPACE
  1

  0
ENDBLK
  5
1D
330
1B
100
AcDbEntity
 67
     1
  8
0
100
AcDbBlockEnd
  0
ENDSEC
  0
SECTION
  2
ENTITIES
  0
LWPOLYLINE
  5
100
100
AcDbEntity
  8
Calque_1
 62
7
100
AcDbPolyline
 90
64
 70
1
 10
8.084075
 20
9.715055
 30
0.0
 10
8.079579
 20
9.630132
 30
0.0
 10
8.066379
 20
9.547658
 30
0.0
 10
8.044914
 20
9.468015
 30
0.0
 10
8.015621
 20
9.391708
 30
0.0
 10
7.978940
 20
9.319142
 30
0.0
 10
7.935307
 20
9.250645
 30
0.0
 10
7.885161
 20
9.186703
 30
0.0
 10
7.828938
 20
9.127723
 30
0.0
 10
7.767078
 20
9.074112
 30
0.0
 10
7.700017
 20
9.026278
 30
0.0
 10
7.628195
 20
8.984707
 30
0.0
 10
7.552048
 20
8.949726
 30
0.0
 10
7.472015
 20
8.921823
 30
0.0
 10
7.388534
 20
8.901322
 30
0.0
 10
7.302041
 20
8.888713
 30
0.0
 10
7.212976
 20
8.884645
 30
0.0
 10
7.123911
 20
8.888713
 30
0.0
 10
7.037419
 20
8.901322
 30
0.0
 10
6.953938
 20
8.921823
 30
0.0
 10
6.873905
 20
8.949726
 30
0.0
 10
6.797758
 20
8.984707
 30
0.0
 10
6.725936
 20
9.026278
 30
0.0
 10
6.658875
 20
9.074112
 30
0.0
 10
6.597015
 20
9.127723
 30
0.0
 10
6.540792
 20
9.186703
 30
0.0
 10
6.490646
 20
9.250645
 30
0.0
 10
6.447013
 20
9.319142
 30
0.0
 10
6.410331
 20
9.391708
 30
0.0
 10
6.381039
 20
9.468015
 30
0.0
 10
6.359574
 20
9.547658
 30
0.0
 10
6.346374
 20
9.630132
 30
0.0
 10
6.341878
 20
9.715055
 30
0.0
 10
6.346374
 20
9.799977
 30
0.0
 10
6.359575
 20
9.882451
 30
0.0
 10
6.381041
 20
9.962013
 30
0.0
 10
6.410334
 20
10.038320
 30
0.0
 10
6.447016
 20
10.110886
 30
0.0
 10
6.490649
 20
10.179383
 30
0.0
 10
6.540796
 20
10.243325
 30
0.0
 10
6.597019
 20
10.302305
 30
0.0
 10
6.658879
 20
10.355916
 30
0.0
 10
6.725939
 20
10.403750
 30
0.0
 10
6.797761
 20
10.445321
 30
0.0
 10
6.873907
 20
10.480302
 30
0.0
 10
6.953939
 20
10.508205
 30
0.0
 10
7.037420
 20
10.528706
 30
0.0
 10
7.123912
 20
10.541315
 30
0.0
 10
7.212976
 20
10.545383
 30
0.0
 10
7.302040
 20
10.541315
 30
0.0
 10
7.388532
 20
10.528706
 30
0.0
 10
7.472013
 20
10.508205
 30
0.0
 10
7.552045
 20
10.480302
 30
0.0
 10
7.628191
 20
10.445321
 30
0.0
 10
7.700013
 20
10.403750
 30
0.0
 10
7.767073
 20
10.355916
 30
0.0
 10
7.828933
 20
10.302305
 30
0.0
 10
7.885156
 20
10.243325
 30
0.0
 10
7.935303
 20
10.179383
 30
0.0
 10
7.978936
 20
10.110886
 30
0.0
 10
8.015618
 20
10.038320
 30
0.0
 10
8.044911
 20
9.962013
 30
0.0
 10
8.066377
 20
9.882451
 30
0.0
 10
8.079578
 20
9.799977
 30
0.0
  0
LWPOLYLINE
  5
101
100
AcDbEntity
  8
Calque_1
 62
7
100
AcDbPolyline
 90
65
 70
1
 10
13.738866
 20
9.715055
 30
0.0
 10
13.734344
 20
9.630132
 30
0.0
 10
13.721145
 20
9.547658
 30
0.0
 10
13.699680
 20
9.468015
 30
0.0
 10
13.670390
 20
9.391708
 30
0.0
 10
13.633712
 20
9.319142
 30
0.0
 10
13.590081
 20
9.250645
 30
0.0
 10
13.539931
 20
9.186703
 30
0.0
 10
13.483707
 20
9.127723
 30
0.0
 10
13.421851
 20
9.074112
 30
0.0
 10
13.354792
 20
9.026278
 30
0.0
 10
13.282971
 20
8.984707
 30
0.0
 10
13.206825
 20
8.949726
 30
0.0
 10
13.126789
 20
8.921823
 30
0.0
 10
13.043306
 20
8.901322
 30
0.0
 10
12.956813
 20
8.888713
 30
0.0
 10
12.867748
 20
8.884645
 30
0.0
 10
12.778684
 20
8.888713
 30
0.0
 10
12.692191
 20
8.901322
 30
0.0
 10
12.608708
 20
8.921823
 30
0.0
 10
12.528671
 20
8.949726
 30
0.0
 10
12.452525
 20
8.984707
 30
0.0
 10
12.380705
 20
9.026278
 30
0.0
 10
12.313645
 20
9.074112
 30
0.0
 10
12.251790
 20
9.127723
 30
0.0
 10
12.195566
 20
9.186703
 30
0.0
 10
12.145416
 20
9.250645
 30
0.0
 10
12.101785
 20
9.319142
 30
0.0
 10
12.065107
 20
9.391708
 30
0.0
 10
12.035817
 20
9.468015
 30
0.0
 10
12.014351
 20
9.547658
 30
0.0
 10
12.001153
 20
9.630132
 30
0.0
 10
11.996631
 20
9.715055
 30
0.0
 10
12.001153
 20
9.799977
 30
0.0
 10
12.014351
 20
9.882451
 30
0.0
 10
12.035817
 20
9.962013
 30
0.0
 10
12.065107
 20
10.038320
 30
0.0
 10
12.101793
 20
10.110886
 30
0.0
 10
12.145425
 20
10.179383
 30
0.0
 10
12.195574
 20
10.243325
 30
0.0
 10
12.251799
 20
10.302305
 30
0.0
 10
12.313662
 20
10.355916
 30
0.0
 10
12.380722
 20
10.403750
 30
0.0
 10
12.452542
 20
10.445321
 30
0.0
 10
12.528688
 20
10.480302
 30
0.0
 10
12.608716
 20
10.508205
 30
0.0
 10
12.692200
 20
10.528706
 30
0.0
 10
12.778691
 20
10.541315
 30
0.0
 10
12.867756
 20
10.545383
 30
0.0
 10
12.956821
 20
10.541315
 30
0.0
 10
13.043312
 20
10.528706
 30
0.0
 10
13.126796
 20
10.508205
 30
0.0
 10
13.206824
 20
10.480302
 30
0.0
 10
13.282970
 20
10.445321
 30
0.0
 10
13.354790
 20
10.403750
 30
0.0
 10
13.421850
 20
10.355916
 30
0.0
 10
13.483713
 20
10.302305
 30
0.0
 10
13.539938
 20
10.243325
 30
0.0
 10
13.590087
 20
10.179383
 30
0.0
 10
13.633719
 20
10.110886
 30
0.0
 10
13.670405
 20
10.038320
 30
0.0
 10
13.699695
 20
9.962013
 30
0.0
 10
13.721161
 20
9.882451
 30
0.0
 10
13.734359
 20
9.799977
 30
0.0
 10
13.738881
 20
9.715055
 30
0.0
  0
LWPOLYLINE
  5
102
100
AcDbEntity
  8
Calque_1
 62
7
100
AcDbPolyline
 90
65
 70
0
 10
9.294164
 20
10.296795
 30
0.0
 10
9.341940
 20
10.339855
 30
0.0
 10
9.392470
 20
10.378970
 30
0.0
 10
9.445436
 20
10.414098
 30
0.0
 10
9.500631
 20
10.445201
 30
0.0
 10
9.557773
 20
10.472204
 30
0.0
 10
9.616640
 20
10.495086
 30
0.0
 10
9.676948
 20
10.513770
 30
0.0
 10
9.738409
 20
10.528184
 30
0.0
 10
9.800866
 20
10.538362
 30
0.0
 10
9.863975
 20
10.544168
 30
0.0
 10
9.927508
 20
10.545589
 30
0.0
 10
9.991188
 20
10.542541
 30
0.0
 10
10.054791
 20
10.535006
 30
0.0
 10
10.118090
 20
10.522969
 30
0.0
 10
10.180748
 20
10.506290
 30
0.0
 10
10.242534
 20
10.484954
 30
0.0
 10
10.302500
 20
10.459282
 30
0.0
 10
10.359693
 20
10.429708
 30
0.0
 10
10.413996
 20
10.396454
 30
0.0
 10
10.465341
 20
10.359814
 30
0.0
 10
10.513186
 20
10.319610
 30
0.0
 10
10.557952
 20
10.276589
 30
0.0
 10
10.598852
 20
10.230345
 30
0.0
 10
10.636302
 20
10.181631
 30
0.0
 10
10.670000
 20
10.130502
 30
0.0
 10
10.699702
 20
10.077069
 30
0.0
 10
10.725340
 20
10.021627
 30
0.0
 10
10.746736
 20
9.964340
 30
0.0
 10
10.763708
 20
9.905381
 30
0.0
 10
10.776131
 20
9.844978
 30
0.0
 10
10.783881
 20
9.783363
 30
0.0
 10
10.786835
 20
9.720764
 30
0.0
 10
10.784842
 20
9.658121
 30
0.0
 10
10.777969
 20
9.596397
 30
0.0
 10
10.766418
 20
9.535857
 30
0.0
 10
10.750333
 20
9.476711
 30
0.0
 10
10.729798
 20
9.419106
 30
0.0
 10
10.705015
 20
9.363310
 30
0.0
 10
10.676128
 20
9.309531
 30
0.0
 10
10.643221
 20
9.257917
 30
0.0
 10
10.606496
 20
9.208734
 30
0.0
 10
10.566038
 20
9.162134
 30
0.0
 10
10.522049
 20
9.118380
 30
0.0
 10
10.474671
 20
9.077683
 30
0.0
 10
10.423992
 20
9.040189
 30
0.0
 10
10.370211
 20
9.006166
 30
0.0
 10
10.313474
 20
8.975821
 30
0.0
 10
10.253923
 20
8.949363
 30
0.0
 10
10.192436
 20
8.927223
 30
0.0
 10
10.130019
 20
8.909714
 30
0.0
 10
10.066947
 20
8.896806
 30
0.0
 10
10.003436
 20
8.888413
 30
0.0
 10
9.939761
 20
8.884504
 30
0.0
 10
9.876197
 20
8.885050
 30
0.0
 10
9.813019
 20
8.890021
 30
0.0
 10
9.750444
 20
8.899329
 30
0.0
 10
9.688746
 20
8.912946
 30
0.0
 10
9.628140
 20
8.930783
 30
0.0
 10
9.568964
 20
8.952867
 30
0.0
 10
9.511431
 20
8.979113
 30
0.0
 10
9.455757
 20
9.009432
 30
0.0
 10
9.402274
 20
9.043855
 30
0.0
 10
9.351320
 20
9.082409
 30
0.0
 10
9.302636
 20
9.124538
 30
0.0
  0
LWPOLYLINE
  5
103
100
AcDbEntity
  8
Calque_1
 62
7
100
AcDbPolyline
 90
65
 70
1
 10
9.722180
 20
9.896353
 30
0.0
 10
9.742574
 20
9.914313
 30
0.0
 10
9.764379
 20
9.929928
 30
0.0
 10
9.787354
 20
9.943194
 30
0.0
 10
9.811318
 20
9.954054
 30
0.0
 10
9.836090
 20
9.962562
 30
0.0
 10
9.861452
 20
9.968694
 30
0.0
 10
9.887249
 20
9.972482
 30
0.0
 10
9.913261
 20
9.973903
 30
0.0
 10
9.939268
 20
9.972936
 30
0.0
 10
9.965117
 20
9.969609
 30
0.0
 10
9.990591
 20
9.963897
 30
0.0
 10
10.015534
 20
9.955833
 30
0.0
 10
10.039728
 20
9.945392
 30
0.0
 10
10.063077
 20
9.932666
 30
0.0
 10
10.085302
 20
9.917571
 30
0.0
 10
10.106307
 20
9.900198
 30
0.0
 10
10.124923
 20
9.880503
 30
0.0
 10
10.141173
 20
9.859601
 30
0.0
 10
10.154961
 20
9.837584
 30
0.0
 10
10.166368
 20
9.814716
 30
0.0
 10
10.175297
 20
9.791091
 30
0.0
 10
10.181770
 20
9.766913
 30
0.0
 10
10.185749
 20
9.742333
 30
0.0
 10
10.187256
 20
9.717559
 30
0.0
 10
10.186261
 20
9.692733
 30
0.0
 10
10.182778
 20
9.668068
 30
0.0
 10
10.176830
 20
9.643773
 30
0.0
 10
10.168379
 20
9.619995
 30
0.0
 10
10.157447
 20
9.596943
 30
0.0
 10
10.143972
 20
9.574789
 30
0.0
 10
10.128013
 20
9.553705
 30
0.0
 10
10.109568
 20
9.533921
 30
0.0
 10
10.089174
 20
9.515961
 30
0.0
 10
10.067368
 20
9.500346
 30
0.0
 10
10.044394
 20
9.487080
 30
0.0
 10
10.020429
 20
9.476220
 30
0.0
 10
9.995658
 20
9.467712
 30
0.0
 10
9.970295
 20
9.461581
 30
0.0
 10
9.944499
 20
9.457792
 30
0.0
 10
9.918486
 20
9.456371
 30
0.0
 10
9.892474
 20
9.457344
 30
0.0
 10
9.866625
 20
9.460671
 30
0.0
 10
9.841150
 20
9.466383
 30
0.0
 10
9.816207
 20
9.474447
 30
0.0
 10
9.792013
 20
9.484887
 30
0.0
 10
9.768665
 20
9.497614
 30
0.0
 10
9.746439
 20
9.512709
 30
0.0
 10
9.725434
 20
9.530082
 30
0.0
 10
9.706819
 20
9.549777
 30
0.0
 10
9.690568
 20
9.570679
 30
0.0
 10
9.676781
 20
9.592696
 30
0.0
 10
9.665374
 20
9.615563
 30
0.0
 10
9.656445
 20
9.639189
 30
0.0
 10
9.649972
 20
9.663367
 30
0.0
 10
9.645993
 20
9.687946
 30
0.0
 10
9.644485
 20
9.712721
 30
0.0
 10
9.645481
 20
9.737547
 30
0.0
 10
9.648964
 20
9.762211
 30
0.0
 10
9.654912
 20
9.786507
 30
0.0
 10
9.663363
 20
9.810284
 30
0.0
 10
9.674294
 20
9.833336
 30
0.0
 10
9.687769
 20
9.855491
 30
0.0
 10
9.703728
 20
9.876575
 30
0.0
 10
9.722173
 20
9.896359
 30
0.0
  0
LWPOLYLINE
  5
104
100
AcDbEntity
  8
Calque_1
 62
7
100
AcDbPolyline
 90
2
 70
0
 10
8.061061
 20
9.719130
 30
0.0
 10
9.676828
 20
9.710995
 30
0.0
  0
LWPOLYLINE
  5
105
100
AcDbEntity
  8
Calque_1
 62
7
100
AcDbPolyline
 90
2
 70
0
 10
10.782921
 20
9.715063
 30
0.0
 10
12.011855
 20
9.715063
 30
0.0
  0
LWPOLYLINE
  5
106
100
AcDbEntity
  8
Calque_1
 62
7
100
AcDbPolyline
 90
3
 70
0
 10
7.217028
 20
10.217293
 30
0.0
 10
7.217028
 20
9.704723
 30
0.0
 10
7.217028
 20
9.212841
 30
0.0
  0
LWPOLYLINE
  5
107
100
AcDbEntity
  8
Calque_1
 62
7
100
AcDbPolyline
 90
2
 70
0
 10
7.743740
 20
9.715063
 30
0.0
 10
6.690315
 20
9.715063
 30
0.0
  0
LWPOLYLINE
  5
108
100
AcDbEntity
  8
Calque_1
 62
7
100
AcDbPolyline
 90
2
 70
0
 10
13.381927
 20
9.715063
 30
0.0
 10
12.328502
 20
9.715063
 30
0.0
  0
LWPOLYLINE
  5
109
100
AcDbEntity
  8
Calque_1
 62
7
100
AcDbPolyline
 90
4
 70
1
 10
1.747422
 20
17.384332
 30
0.0
 10
1.747422
 20
17.384332
 30
0.0
 10
1.747422
 20
1.127695
 30
0.0
 10
1.747422
 20
1.127695
 30
0.0
  0
ENDSEC
  0
SECTION
  2
OBJECTS
  0
DICTIONARY
  5
C
330
0
100
AcDbDictionary
  3
ACAD_GROUP
350
D
  3
ACAD_MLINESTYLE
350
17
  0
DICTIONARY
  5
D
330
C
100
AcDbDictionary
  0
DICTIONARY
  5
1A
330
C
100
AcDbDictionary
  0
DICTIONARY
  5
17
330
C
100
AcDbDictionary
  3
STANDARD
350
18
  0
DICTIONARY
  5
19
330
C
100
AcDbDictionary
  0
ENDSEC
  0
EOF
