  0
SECTION
  2
HEADER
  9
$ACADVER
  1
AC1014
  9
$HANDSEED
  5
FFFF
  9
$MEASUREMENT
 70
     1
  0
ENDSEC
  0
SECTION
  2
TABLES
  0
TABLE
  2
VPORT
  5
8
330
0
100
AcDbSymbolTable
 70
     4
  0
VPORT
  5
2E
330
8
100
AcDbSymbolTableRecord
100
AcDbViewportTableRecord
  2
*ACTIVE
 70
     0
 10
0.0
 20
0.0
 11
1.0
 21
1.0
 12
210.0
 22
148.5
 13
0.0
 23
0.0
 14
10.0
 24
10.0
 15
10.0
 25
10.0
 16
0.0
 26
0.0
 36
1.0
 17
0.0
 27
0.0
 37
0.0
 40
341.0
 41
1.24
 42
50.0
 43
0.0
 44
0.0
 50
0.0
 51
0.0
 71
     0
 72
   100
 73
     1
 74
     3
 75
     0
 76
     0
 77
     0
 78
     0
  0
ENDTAB
  0
TABLE
  2
LTYPE
  5
5
330
0
100
AcDbSymbolTable
 70
     1
  0
LTYPE
  5
14
330
5
100
AcDbSymbolTableRecord
100
AcDbLinetypeTableRecord
  2
BYBLOCK
 70
     0
  3

 72
    65
 73
     0
 40
0.0
  0
LTYPE
  5
15
330
5
100
AcDbSymbolTableRecord
100
AcDbLinetypeTableRecord
  2
BYLAYER
 70
     0
  3

 72
    65
 73
     0
 40
0.0
  0
LTYPE
  5
16
330
5
100
AcDbSymbolTableRecord
100
AcDbLinetypeTableRecord
  2
CONTINUOUS
 70
     0
  3
Solid line
 72
    65
 73
     0
 40
0.0
  0
ENDTAB
  0
TABLE
  2
LAYER
  5
2
100
AcDbSymbolTable
 70
2
  0
LAYER
  5
50
100
AcDbSymbolTableRecord
100
AcDbLayerTableRecord
  2
0
 70
0
  6
CONTINUOUS
  0
LAYER
  5
51
100
AcDbSymbolTableRecord
100
AcDbLayerTableRecord
  2
Calque_1
 70
0
  6
CONTINUOUS
  0
ENDTAB
  0
TABLE
  2
STYLE
  5
3
330
0
100
AcDbSymbolTable
 70
     1
  0
STYLE
  5
11
330
3
100
AcDbSymbolTableRecord
100
AcDbTextStyleTableRecord
  2
STANDARD
 70
     0
 40
0.0
 41
1.0
 50
0.0
 71
     0
 42
2.5
  3
txt
  4

  0
ENDTAB
  0
TABLE
  2
VIEW
  5
6
330
0
100
AcDbSymbolTable
 70
     0
  0
ENDTAB
  0
TABLE
  2
UCS
  5
7
330
0
100
AcDbSymbolTable
 70
     0
  0
ENDTAB
  0
TABLE
  2
APPID
  5
9
330
0
100
AcDbSymbolTable
 70
     2
  0
APPID
  5
12
330
9
100
AcDbSymbolTableRecord
100
AcDbRegAppTableRecord
  2
ACAD
 70
     0
  0
ENDTAB
  0
TABLE
  2
DIMSTYLE
  5
A
330
0
100
AcDbSymbolTable
 70
     1
  0
DIMSTYLE
105
27
330
A
100
AcDbSymbolTableRecord
100
AcDbDimStyleTableRecord
  2
ISO-25
 70
     0
  3

  4

  5

  6

  7

 40
1.0
 41
2.5
 42
0.625
 43
3.75
 44
1.25
 45
0.0
 46
0.0
 47
0.0
 48
0.0
140
2.5
141
2.5
142
0.0
143
0.03937007874016
144
1.0
145
0.0
146
1.0
147
0.625
 71
     0
 72
     0
 73
     0
 74
     0
 75
     0
 76
     0
 77
     1
 78
     8
170
     0
171
     3
172
     1
173
     0
174
     0
175
     0
176
     0
177
     0
178
     0
270
     2
271
     2
272
     2
273
     2
274
     3
340
11
275
     0
280
     0
281
     0
282
     0
283
     0
284
     8
285
     0
286
     0
287
     3
288
     0
  0
ENDTAB
  0
TABLE
  2
BLOCK_RECORD
  5
1
330
0
100
AcDbSymbolTable
 70
     1
  0
BLOCK_RECORD
  5
1F
330
1
100
AcDbSymbolTableRecord
100
AcDbBlockTableRecord
  2
*MODEL_SPACE
  0
BLOCK_RECORD
  5
1B
330
1
100
AcDbSymbolTableRecord
100
AcDbBlockTableRecord
  2
*PAPER_SPACE
  0
ENDTAB
  0
ENDSEC
  0
SECTION
  2
BLOCKS
  0
BLOCK
  5
20
330
1F
100
AcDbEntity
  8
0
100
AcDbBlockBegin
  2
*MODEL_SPACE
 70
     0
 10
0.0
 20
0.0
 30
0.0
  3
*MODEL_SPACE
  1

  0
ENDBLK
  5
21
330
1F
100
AcDbEntity
  8
0
100
AcDbBlockEnd
  0
BLOCK
  5
1C
330
1B
100
AcDbEntity
 67
     1
  8
0
100
AcDbBlockBegin
  2
*PAPER_SPACE
  1

  0
ENDBLK
  5
1D
330
1B
100
AcDbEntity
 67
     1
  8
0
100
AcDbBlockEnd
  0
ENDSEC
  0
SECTION
  2
ENTITIES
  0
LWPOLYLINE
  5
100
100
AcDbEntity
  8
Calque_1
 62
7
100
AcDbPolyline
 90
32
 70
1
 10
9.329087
 20
14.409480
 30
0.0
 10
9.309116
 20
14.211370
 30
0.0
 10
9.251837
 20
14.026840
 30
0.0
 10
9.161204
 20
13.859860
 30
0.0
 10
9.041169
 20
13.714380
 30
0.0
 10
8.895685
 20
13.594340
 30
0.0
 10
8.728705
 20
13.503740
 30
0.0
 10
8.544182
 20
13.446440
 30
0.0
 10
8.346070
 20
13.426440
 30
0.0
 10
8.147957
 20
13.446440
 30
0.0
 10
7.963434
 20
13.503740
 30
0.0
 10
7.796455
 20
13.594340
 30
0.0
 10
7.650971
 20
13.714380
 30
0.0
 10
7.530936
 20
13.859860
 30
0.0
 10
7.440303
 20
14.026840
 30
0.0
 10
7.383025
 20
14.211370
 30
0.0
 10
7.363054
 20
14.409480
 30
0.0
 10
7.383025
 20
14.607590
 30
0.0
 10
7.440303
 20
14.792120
 30
0.0
 10
7.530936
 20
14.959100
 30
0.0
 10
7.650971
 20
15.104580
 30
0.0
 10
7.796455
 20
15.224620
 30
0.0
 10
7.963434
 20
15.315220
 30
0.0
 10
8.147957
 20
15.372520
 30
0.0
 10
8.346070
 20
15.392520
 30
0.0
 10
8.544182
 20
15.372520
 30
0.0
 10
8.728705
 20
15.315220
 30
0.0
 10
8.895685
 20
15.224620
 30
0.0
 10
9.041169
 20
15.104580
 30
0.0
 10
9.161204
 20
14.959100
 30
0.0
 10
9.251837
 20
14.792120
 30
0.0
 10
9.309116
 20
14.607590
 30
0.0
  0
LWPOLYLINE
  5
101
100
AcDbEntity
  8
Calque_1
 62
7
100
AcDbPolyline
 90
32
 70
1
 10
12.648548
 20
14.390500
 30
0.0
 10
12.628578
 20
14.192390
 30
0.0
 10
12.571298
 20
14.007860
 30
0.0
 10
12.480668
 20
13.840880
 30
0.0
 10
12.360633
 20
13.695400
 30
0.0
 10
12.215150
 20
13.575360
 30
0.0
 10
12.048170
 20
13.484760
 30
0.0
 10
11.863647
 20
13.427460
 30
0.0
 10
11.665535
 20
13.407460
 30
0.0
 10
11.467422
 20
13.427460
 30
0.0
 10
11.282900
 20
13.484760
 30
0.0
 10
11.115920
 20
13.575360
 30
0.0
 10
10.970436
 20
13.695400
 30
0.0
 10
10.850401
 20
13.840880
 30
0.0
 10
10.759771
 20
14.007860
 30
0.0
 10
10.702491
 20
14.192390
 30
0.0
 10
10.682521
 20
14.390500
 30
0.0
 10
10.702491
 20
14.588610
 30
0.0
 10
10.759771
 20
14.773130
 30
0.0
 10
10.850401
 20
14.940110
 30
0.0
 10
10.970436
 20
15.085590
 30
0.0
 10
11.115920
 20
15.205630
 30
0.0
 10
11.282899
 20
15.296230
 30
0.0
 10
11.467421
 20
15.353530
 30
0.0
 10
11.665532
 20
15.373530
 30
0.0
 10
11.863643
 20
15.353530
 30
0.0
 10
12.048165
 20
15.296230
 30
0.0
 10
12.215143
 20
15.205630
 30
0.0
 10
12.360627
 20
15.085590
 30
0.0
 10
12.480662
 20
14.940110
 30
0.0
 10
12.571292
 20
14.773130
 30
0.0
 10
12.628572
 20
14.588610
 30
0.0
  0
LWPOLYLINE
  5
102
100
AcDbEntity
  8
Calque_1
 62
7
100
AcDbPolyline
 90
2
 70
0
 10
6.452003
 20
14.385720
 30
0.0
 10
7.341952
 20
14.385720
 30
0.0
  0
LWPOLYLINE
  5
103
100
AcDbEntity
  8
Calque_1
 62
7
100
AcDbPolyline
 90
12
 70
1
 10
9.072371
 20
8.151620
 30
0.0
 10
8.562766
 20
8.191820
 30
0.0
 10
8.370442
 20
7.718170
 30
0.0
 10
8.150473
 20
8.179630
 30
0.0
 10
7.644141
 20
8.109430
 30
0.0
 10
7.933772
 20
8.530670
 30
0.0
 10
7.619766
 20
8.934070
 30
0.0
 10
8.129371
 20
8.893870
 30
0.0
 10
8.321697
 20
9.367520
 30
0.0
 10
8.541664
 20
8.906050
 30
0.0
 10
9.047995
 20
8.976350
 30
0.0
 10
8.758365
 20
8.555110
 30
0.0
  0
LWPOLYLINE
  5
104
100
AcDbEntity
  8
Calque_1
 62
7
100
AcDbPolyline
 90
32
 70
1
 10
9.329087
 20
8.542830
 30
0.0
 10
9.309116
 20
8.344720
 30
0.0
 10
9.251837
 20
8.160190
 30
0.0
 10
9.161204
 20
7.993210
 30
0.0
 10
9.041169
 20
7.847730
 30
0.0
 10
8.895685
 20
7.727690
 30
0.0
 10
8.728705
 20
7.637090
 30
0.0
 10
8.544182
 20
7.579790
 30
0.0
 10
8.346070
 20
7.559790
 30
0.0
 10
8.147957
 20
7.579790
 30
0.0
 10
7.963434
 20
7.637090
 30
0.0
 10
7.796455
 20
7.727690
 30
0.0
 10
7.650971
 20
7.847730
 30
0.0
 10
7.530936
 20
7.993210
 30
0.0
 10
7.440303
 20
8.160190
 30
0.0
 10
7.383025
 20
8.344720
 30
0.0
 10
7.363054
 20
8.542830
 30
0.0
 10
7.383025
 20
8.740940
 30
0.0
 10
7.440303
 20
8.925470
 30
0.0
 10
7.530936
 20
9.092450
 30
0.0
 10
7.650971
 20
9.237930
 30
0.0
 10
7.796455
 20
9.357970
 30
0.0
 10
7.963434
 20
9.448570
 30
0.0
 10
8.147957
 20
9.505870
 30
0.0
 10
8.346070
 20
9.525870
 30
0.0
 10
8.544182
 20
9.505870
 30
0.0
 10
8.728705
 20
9.448570
 30
0.0
 10
8.895685
 20
9.357970
 30
0.0
 10
9.041169
 20
9.237930
 30
0.0
 10
9.161204
 20
9.092450
 30
0.0
 10
9.251837
 20
8.925470
 30
0.0
 10
9.309116
 20
8.740940
 30
0.0
  0
LWPOLYLINE
  5
105
100
AcDbEntity
  8
Calque_1
 62
7
100
AcDbPolyline
 90
32
 70
1
 10
12.648548
 20
8.523850
 30
0.0
 10
12.628578
 20
8.325740
 30
0.0
 10
12.571298
 20
8.141210
 30
0.0
 10
12.480668
 20
7.974230
 30
0.0
 10
12.360633
 20
7.828750
 30
0.0
 10
12.215150
 20
7.708710
 30
0.0
 10
12.048170
 20
7.618110
 30
0.0
 10
11.863647
 20
7.560810
 30
0.0
 10
11.665535
 20
7.540810
 30
0.0
 10
11.467422
 20
7.560810
 30
0.0
 10
11.282900
 20
7.618110
 30
0.0
 10
11.115920
 20
7.708710
 30
0.0
 10
10.970436
 20
7.828750
 30
0.0
 10
10.850401
 20
7.974230
 30
0.0
 10
10.759771
 20
8.141210
 30
0.0
 10
10.702491
 20
8.325740
 30
0.0
 10
10.682521
 20
8.523850
 30
0.0
 10
10.702491
 20
8.721960
 30
0.0
 10
10.759771
 20
8.906480
 30
0.0
 10
10.850401
 20
9.073460
 30
0.0
 10
10.970436
 20
9.218940
 30
0.0
 10
11.115920
 20
9.338980
 30
0.0
 10
11.282899
 20
9.429580
 30
0.0
 10
11.467421
 20
9.486880
 30
0.0
 10
11.665532
 20
9.506880
 30
0.0
 10
11.863643
 20
9.486880
 30
0.0
 10
12.048165
 20
9.429580
 30
0.0
 10
12.215143
 20
9.338980
 30
0.0
 10
12.360627
 20
9.218940
 30
0.0
 10
12.480662
 20
9.073460
 30
0.0
 10
12.571292
 20
8.906480
 30
0.0
 10
12.628572
 20
8.721960
 30
0.0
  0
LWPOLYLINE
  5
106
100
AcDbEntity
  8
Calque_1
 62
7
100
AcDbPolyline
 90
2
 70
0
 10
6.452003
 20
8.519070
 30
0.0
 10
7.341952
 20
8.519070
 30
0.0
  0
LWPOLYLINE
  5
107
100
AcDbEntity
  8
Calque_1
 62
7
100
AcDbPolyline
 90
32
 70
1
 10
9.329087
 20
11.476140
 30
0.0
 10
9.309116
 20
11.278030
 30
0.0
 10
9.251837
 20
11.093500
 30
0.0
 10
9.161204
 20
10.926520
 30
0.0
 10
9.041169
 20
10.781040
 30
0.0
 10
8.895685
 20
10.661000
 30
0.0
 10
8.728705
 20
10.570400
 30
0.0
 10
8.544182
 20
10.513100
 30
0.0
 10
8.346070
 20
10.493100
 30
0.0
 10
8.147957
 20
10.513100
 30
0.0
 10
7.963434
 20
10.570400
 30
0.0
 10
7.796455
 20
10.661000
 30
0.0
 10
7.650971
 20
10.781040
 30
0.0
 10
7.530936
 20
10.926520
 30
0.0
 10
7.440303
 20
11.093500
 30
0.0
 10
7.383025
 20
11.278030
 30
0.0
 10
7.363054
 20
11.476140
 30
0.0
 10
7.383025
 20
11.674250
 30
0.0
 10
7.440303
 20
11.858780
 30
0.0
 10
7.530936
 20
12.025760
 30
0.0
 10
7.650971
 20
12.171240
 30
0.0
 10
7.796455
 20
12.291280
 30
0.0
 10
7.963434
 20
12.381880
 30
0.0
 10
8.147957
 20
12.439180
 30
0.0
 10
8.346070
 20
12.459180
 30
0.0
 10
8.544182
 20
12.439180
 30
0.0
 10
8.728705
 20
12.381880
 30
0.0
 10
8.895685
 20
12.291280
 30
0.0
 10
9.041169
 20
12.171240
 30
0.0
 10
9.161204
 20
12.025760
 30
0.0
 10
9.251837
 20
11.858780
 30
0.0
 10
9.309116
 20
11.674250
 30
0.0
  0
LWPOLYLINE
  5
108
100
AcDbEntity
  8
Calque_1
 62
7
100
AcDbPolyline
 90
12
 70
1
 10
12.391834
 20
11.065970
 30
0.0
 10
11.882229
 20
11.106170
 30
0.0
 10
11.689905
 20
10.632530
 30
0.0
 10
11.469936
 20
11.093980
 30
0.0
 10
10.963604
 20
11.023780
 30
0.0
 10
11.253235
 20
11.445020
 30
0.0
 10
10.939229
 20
11.848420
 30
0.0
 10
11.448834
 20
11.808220
 30
0.0
 10
11.641160
 20
12.281870
 30
0.0
 10
11.861127
 20
11.820410
 30
0.0
 10
12.367458
 20
11.890710
 30
0.0
 10
12.077828
 20
11.469470
 30
0.0
  0
LWPOLYLINE
  5
109
100
AcDbEntity
  8
Calque_1
 62
7
100
AcDbPolyline
 90
32
 70
1
 10
12.648548
 20
11.457160
 30
0.0
 10
12.628578
 20
11.259050
 30
0.0
 10
12.571298
 20
11.074520
 30
0.0
 10
12.480668
 20
10.907540
 30
0.0
 10
12.360633
 20
10.762060
 30
0.0
 10
12.215150
 20
10.642020
 30
0.0
 10
12.048170
 20
10.551420
 30
0.0
 10
11.863647
 20
10.494120
 30
0.0
 10
11.665535
 20
10.474120
 30
0.0
 10
11.467422
 20
10.494120
 30
0.0
 10
11.282900
 20
10.551420
 30
0.0
 10
11.115920
 20
10.642020
 30
0.0
 10
10.970436
 20
10.762060
 30
0.0
 10
10.850401
 20
10.907540
 30
0.0
 10
10.759771
 20
11.074520
 30
0.0
 10
10.702491
 20
11.259050
 30
0.0
 10
10.682521
 20
11.457160
 30
0.0
 10
10.702491
 20
11.655270
 30
0.0
 10
10.759771
 20
11.839800
 30
0.0
 10
10.850401
 20
12.006780
 30
0.0
 10
10.970436
 20
12.152260
 30
0.0
 10
11.115920
 20
12.272300
 30
0.0
 10
11.282900
 20
12.362900
 30
0.0
 10
11.467422
 20
12.420200
 30
0.0
 10
11.665535
 20
12.440200
 30
0.0
 10
11.863647
 20
12.420200
 30
0.0
 10
12.048170
 20
12.362900
 30
0.0
 10
12.215150
 20
12.272300
 30
0.0
 10
12.360633
 20
12.152260
 30
0.0
 10
12.480668
 20
12.006780
 30
0.0
 10
12.571298
 20
11.839800
 30
0.0
 10
12.628578
 20
11.655270
 30
0.0
  0
LWPOLYLINE
  5
10a
100
AcDbEntity
  8
Calque_1
 62
7
100
AcDbPolyline
 90
2
 70
0
 10
6.452003
 20
11.452400
 30
0.0
 10
7.341952
 20
11.452400
 30
0.0
  0
LWPOLYLINE
  5
10b
100
AcDbEntity
  8
Calque_1
 62
7
100
AcDbPolyline
 90
12
 70
1
 10
9.072371
 20
5.218310
 30
0.0
 10
8.562766
 20
5.258510
 30
0.0
 10
8.370442
 20
4.784860
 30
0.0
 10
8.150473
 20
5.246320
 30
0.0
 10
7.644141
 20
5.176020
 30
0.0
 10
7.933772
 20
5.597270
 30
0.0
 10
7.619766
 20
6.000670
 30
0.0
 10
8.129371
 20
5.960470
 30
0.0
 10
8.321697
 20
6.434130
 30
0.0
 10
8.541664
 20
5.972660
 30
0.0
 10
9.047995
 20
6.042960
 30
0.0
 10
8.758365
 20
5.621720
 30
0.0
  0
LWPOLYLINE
  5
10c
100
AcDbEntity
  8
Calque_1
 62
7
100
AcDbPolyline
 90
32
 70
1
 10
9.329087
 20
5.609490
 30
0.0
 10
9.309116
 20
5.411380
 30
0.0
 10
9.251837
 20
5.226850
 30
0.0
 10
9.161204
 20
5.059870
 30
0.0
 10
9.041169
 20
4.914390
 30
0.0
 10
8.895685
 20
4.794350
 30
0.0
 10
8.728705
 20
4.703750
 30
0.0
 10
8.544182
 20
4.646450
 30
0.0
 10
8.346070
 20
4.626450
 30
0.0
 10
8.147957
 20
4.646450
 30
0.0
 10
7.963434
 20
4.703750
 30
0.0
 10
7.796455
 20
4.794350
 30
0.0
 10
7.650971
 20
4.914390
 30
0.0
 10
7.530936
 20
5.059870
 30
0.0
 10
7.440303
 20
5.226850
 30
0.0
 10
7.383025
 20
5.411380
 30
0.0
 10
7.363054
 20
5.609490
 30
0.0
 10
7.383025
 20
5.807600
 30
0.0
 10
7.440303
 20
5.992130
 30
0.0
 10
7.530936
 20
6.159110
 30
0.0
 10
7.650971
 20
6.304590
 30
0.0
 10
7.796455
 20
6.424630
 30
0.0
 10
7.963435
 20
6.515230
 30
0.0
 10
8.147957
 20
6.572530
 30
0.0
 10
8.346070
 20
6.592530
 30
0.0
 10
8.544182
 20
6.572530
 30
0.0
 10
8.728705
 20
6.515230
 30
0.0
 10
8.895685
 20
6.424630
 30
0.0
 10
9.041169
 20
6.304590
 30
0.0
 10
9.161204
 20
6.159110
 30
0.0
 10
9.251837
 20
5.992130
 30
0.0
 10
9.309116
 20
5.807600
 30
0.0
  0
LWPOLYLINE
  5
10d
100
AcDbEntity
  8
Calque_1
 62
7
100
AcDbPolyline
 90
12
 70
1
 10
12.391834
 20
5.199320
 30
0.0
 10
11.882229
 20
5.239520
 30
0.0
 10
11.689905
 20
4.765880
 30
0.0
 10
11.469936
 20
5.227330
 30
0.0
 10
10.963604
 20
5.157030
 30
0.0
 10
11.253235
 20
5.578270
 30
0.0
 10
10.939229
 20
5.981670
 30
0.0
 10
11.448834
 20
5.941470
 30
0.0
 10
11.641160
 20
6.415120
 30
0.0
 10
11.861127
 20
5.953660
 30
0.0
 10
12.367458
 20
6.023860
 30
0.0
 10
12.077828
 20
5.602620
 30
0.0
  0
LWPOLYLINE
  5
10e
100
AcDbEntity
  8
Calque_1
 62
7
100
AcDbPolyline
 90
32
 70
1
 10
12.648548
 20
5.590510
 30
0.0
 10
12.628578
 20
5.392400
 30
0.0
 10
12.571298
 20
5.207870
 30
0.0
 10
12.480668
 20
5.040890
 30
0.0
 10
12.360633
 20
4.895410
 30
0.0
 10
12.215150
 20
4.775370
 30
0.0
 10
12.048170
 20
4.684770
 30
0.0
 10
11.863647
 20
4.627470
 30
0.0
 10
11.665535
 20
4.607470
 30
0.0
 10
11.467422
 20
4.627470
 30
0.0
 10
11.282900
 20
4.684770
 30
0.0
 10
11.115920
 20
4.775370
 30
0.0
 10
10.970436
 20
4.895410
 30
0.0
 10
10.850401
 20
5.040890
 30
0.0
 10
10.759771
 20
5.207870
 30
0.0
 10
10.702491
 20
5.392400
 30
0.0
 10
10.682521
 20
5.590510
 30
0.0
 10
10.702491
 20
5.788620
 30
0.0
 10
10.759771
 20
5.973150
 30
0.0
 10
10.850401
 20
6.140130
 30
0.0
 10
10.970436
 20
6.285610
 30
0.0
 10
11.115920
 20
6.405650
 30
0.0
 10
11.282900
 20
6.496250
 30
0.0
 10
11.467422
 20
6.553550
 30
0.0
 10
11.665535
 20
6.573550
 30
0.0
 10
11.863647
 20
6.553550
 30
0.0
 10
12.048170
 20
6.496250
 30
0.0
 10
12.215150
 20
6.405650
 30
0.0
 10
12.360633
 20
6.285610
 30
0.0
 10
12.480668
 20
6.140130
 30
0.0
 10
12.571298
 20
5.973150
 30
0.0
 10
12.628578
 20
5.788620
 30
0.0
  0
LWPOLYLINE
  5
10f
100
AcDbEntity
  8
Calque_1
 62
7
100
AcDbPolyline
 90
2
 70
0
 10
6.452003
 20
5.585740
 30
0.0
 10
7.341952
 20
5.585740
 30
0.0
  0
ENDSEC
  0
SECTION
  2
OBJECTS
  0
DICTIONARY
  5
C
330
0
100
AcDbDictionary
  3
ACAD_GROUP
350
D
  3
ACAD_MLINESTYLE
350
17
  0
DICTIONARY
  5
D
330
C
100
AcDbDictionary
  0
DICTIONARY
  5
1A
330
C
100
AcDbDictionary
  0
DICTIONARY
  5
17
330
C
100
AcDbDictionary
  3
STANDARD
350
18
  0
DICTIONARY
  5
19
330
C
100
AcDbDictionary
  0
ENDSEC
  0
EOF
