<?xml version="1.0" encoding="UTF-8" standalone="no"?>
<!-- Created with Inkscape (http://www.inkscape.org/) -->

<svg
   xmlns:dc="http://purl.org/dc/elements/1.1/"
   xmlns:cc="http://creativecommons.org/ns#"
   xmlns:rdf="http://www.w3.org/1999/02/22-rdf-syntax-ns#"
   xmlns:svg="http://www.w3.org/2000/svg"
   xmlns="http://www.w3.org/2000/svg"
   xmlns:sodipodi="http://sodipodi.sourceforge.net/DTD/sodipodi-0.dtd"
   xmlns:inkscape="http://www.inkscape.org/namespaces/inkscape"
   width="20mm"
   height="20mm"
   viewBox="0 0 20 20"
   version="1.1"
   id="svg928"
   inkscape:version="0.92.4 (5da689c313, 2019-01-14)"
   sodipodi:docname="E256_truth_table.svg">
  <defs
     id="defs922" />
  <sodipodi:namedview
     id="base"
     pagecolor="#ffffff"
     bordercolor="#666666"
     borderopacity="1.0"
     inkscape:pageopacity="0.0"
     inkscape:pageshadow="2"
     inkscape:zoom="15.295962"
     inkscape:cx="28.943838"
     inkscape:cy="40.222521"
     inkscape:document-units="mm"
     inkscape:current-layer="layer1"
     showgrid="false"
     inkscape:window-width="1920"
     inkscape:window-height="995"
     inkscape:window-x="0"
     inkscape:window-y="28"
     inkscape:window-maximized="1"
     showguides="true"
     inkscape:guide-bbox="true">
    <sodipodi:guide
       position="6.4520024,14.201324"
       orientation="1,0"
       id="guide841"
       inkscape:locked="false" />
  </sodipodi:namedview>
  <metadata
     id="metadata925">
    <rdf:RDF>
      <cc:Work
         rdf:about="">
        <dc:format>image/svg+xml</dc:format>
        <dc:type
           rdf:resource="http://purl.org/dc/dcmitype/StillImage" />
        <dc:title></dc:title>
      </cc:Work>
    </rdf:RDF>
  </metadata>
  <g
     inkscape:label="Calque 1"
     inkscape:groupmode="layer"
     id="layer1"
     transform="translate(0,-277)">
    <path
       style="opacity:0.98000004;fill:none;fill-opacity:1;fill-rule:nonzero;stroke:#000000;stroke-width:0.2;stroke-linecap:butt;stroke-linejoin:bevel;stroke-miterlimit:4;stroke-dasharray:none;stroke-opacity:1;paint-order:normal"
       d="m 9.3290867,282.59052 -0.019971,0.19811 -0.057279,0.18453 -0.090633,0.16698 -0.1200351,0.14548 -0.1454839,0.12004 -0.1669798,0.0906 -0.1845227,0.0573 -0.1981126,0.02 -0.1981126,-0.02 -0.1845227,-0.0573 -0.1669797,-0.0906 -0.145484,-0.12004 -0.1200351,-0.14548 -0.090633,-0.16698 -0.057278,-0.18453 -0.019971,-0.19811 0.019971,-0.19811 0.057278,-0.18453 0.090633,-0.16698 0.1200351,-0.14548 0.145484,-0.12004 0.1669797,-0.0906 0.1845227,-0.0573 0.1981126,-0.02 0.1981126,0.02 0.1845227,0.0573 0.1669798,0.0906 0.1454839,0.12004 0.1200351,0.14548 0.090633,0.16698 0.057279,0.18453 z"
       id="path836"
       inkscape:connector-curvature="0"
       sodipodi:nodetypes="ccccccccccccccccccccccccccccccccc" />
    <path
       style="opacity:0.98000004;fill:none;fill-opacity:1;fill-rule:nonzero;stroke:#000000;stroke-width:0.2;stroke-linecap:butt;stroke-linejoin:bevel;stroke-miterlimit:4;stroke-dasharray:none;stroke-opacity:1;paint-order:normal"
       d="m 12.648548,282.6095 -0.01997,0.19811 -0.05728,0.18453 -0.09063,0.16698 -0.120035,0.14548 -0.145483,0.12004 -0.16698,0.0906 -0.184523,0.0573 -0.198112,0.02 -0.198113,-0.02 -0.184522,-0.0573 -0.16698,-0.0906 -0.145484,-0.12004 -0.120035,-0.14548 -0.09063,-0.16698 -0.05728,-0.18453 -0.01997,-0.19811 0.01997,-0.19811 0.05728,-0.18452 0.09063,-0.16698 0.120035,-0.14548 0.145484,-0.12004 0.166979,-0.0906 0.184522,-0.0573 0.198111,-0.02 0.198111,0.02 0.184522,0.0573 0.166978,0.0906 0.145484,0.12004 0.120035,0.14548 0.09063,0.16698 0.05728,0.18452 z"
       id="circle842"
       inkscape:connector-curvature="0"
       sodipodi:nodetypes="ccccccccccccccccccccccccccccccccc" />
    <path
       style="fill:none;stroke:#000000;stroke-width:0.26458332px;stroke-linecap:butt;stroke-linejoin:miter;stroke-opacity:1"
       d="M 6.4520026,282.61428 H 7.3419515"
       id="path852"
       inkscape:connector-curvature="0" />
    <path
       inkscape:connector-curvature="0"
       style="opacity:0.98000004;fill:none;fill-opacity:1;fill-rule:nonzero;stroke:#000000;stroke-width:0.20000002;stroke-linecap:butt;stroke-linejoin:bevel;stroke-miterlimit:4;stroke-dasharray:none;stroke-opacity:1;paint-order:normal"
       inkscape:transform-center-x="0.00325543"
       inkscape:transform-center-y="0.06813409"
       d="m 9.0723707,288.84838 -0.5096046,-0.0402 -0.1923237,0.47365 -0.2199694,-0.46146 -0.5063316,0.0702 0.2896306,-0.42124 -0.3140059,-0.4034 0.5096045,0.0402 0.192326,-0.47365 0.2199669,0.46147 0.5063317,-0.0703 -0.2896307,0.42124 z"
       id="path871" />
    <path
       style="opacity:0.98000004;fill:none;fill-opacity:1;fill-rule:nonzero;stroke:#000000;stroke-width:0.2;stroke-linecap:butt;stroke-linejoin:bevel;stroke-miterlimit:4;stroke-dasharray:none;stroke-opacity:1;paint-order:normal"
       d="m 9.3290867,288.45717 -0.019971,0.19811 -0.057279,0.18453 -0.090633,0.16698 -0.1200351,0.14548 -0.1454839,0.12004 -0.1669798,0.0906 -0.1845227,0.0573 -0.1981126,0.02 -0.1981126,-0.02 -0.1845227,-0.0573 -0.1669797,-0.0906 -0.145484,-0.12004 -0.1200351,-0.14548 -0.090633,-0.16698 -0.057278,-0.18453 -0.019971,-0.19811 0.019971,-0.19811 0.057278,-0.18453 0.090633,-0.16698 0.1200351,-0.14548 0.145484,-0.12004 0.1669797,-0.0906 0.1845227,-0.0573 0.1981126,-0.02 0.1981126,0.02 0.1845227,0.0573 0.1669798,0.0906 0.1454839,0.12004 0.1200351,0.14548 0.090633,0.16698 0.057279,0.18453 z"
       id="circle873"
       inkscape:connector-curvature="0"
       sodipodi:nodetypes="ccccccccccccccccccccccccccccccccc" />
    <path
       style="opacity:0.98000004;fill:none;fill-opacity:1;fill-rule:nonzero;stroke:#000000;stroke-width:0.2;stroke-linecap:butt;stroke-linejoin:bevel;stroke-miterlimit:4;stroke-dasharray:none;stroke-opacity:1;paint-order:normal"
       d="m 12.648548,288.47615 -0.01997,0.19811 -0.05728,0.18453 -0.09063,0.16698 -0.120035,0.14548 -0.145483,0.12004 -0.16698,0.0906 -0.184523,0.0573 -0.198112,0.02 -0.198113,-0.02 -0.184522,-0.0573 -0.16698,-0.0906 -0.145484,-0.12004 -0.120035,-0.14548 -0.09063,-0.16698 -0.05728,-0.18453 -0.01997,-0.19811 0.01997,-0.19811 0.05728,-0.18452 0.09063,-0.16698 0.120035,-0.14548 0.145484,-0.12004 0.166979,-0.0906 0.184522,-0.0573 0.198111,-0.02 0.198111,0.02 0.184522,0.0573 0.166978,0.0906 0.145484,0.12004 0.120035,0.14548 0.09063,0.16698 0.05728,0.18452 z"
       id="circle879"
       inkscape:connector-curvature="0"
       sodipodi:nodetypes="ccccccccccccccccccccccccccccccccc" />
    <path
       inkscape:connector-curvature="0"
       id="path883"
       d="M 6.4520026,288.48093 H 7.3419515"
       style="fill:none;stroke:#000000;stroke-width:0.26458332px;stroke-linecap:butt;stroke-linejoin:miter;stroke-opacity:1" />
    <path
       style="opacity:0.98000004;fill:none;fill-opacity:1;fill-rule:nonzero;stroke:#000000;stroke-width:0.2;stroke-linecap:butt;stroke-linejoin:bevel;stroke-miterlimit:4;stroke-dasharray:none;stroke-opacity:1;paint-order:normal"
       d="m 9.3290867,285.52386 -0.019971,0.19811 -0.057279,0.18453 -0.090633,0.16698 -0.1200351,0.14548 -0.1454839,0.12004 -0.1669798,0.0906 -0.1845227,0.0573 -0.1981126,0.02 -0.1981126,-0.02 -0.1845227,-0.0573 -0.1669797,-0.0906 -0.145484,-0.12004 -0.1200351,-0.14548 -0.090633,-0.16698 -0.057278,-0.18453 -0.019971,-0.19811 0.019971,-0.19811 0.057278,-0.18453 0.090633,-0.16698 0.1200351,-0.14548 0.145484,-0.12004 0.1669797,-0.0906 0.1845227,-0.0573 0.1981126,-0.02 0.1981126,0.02 0.1845227,0.0573 0.1669798,0.0906 0.1454839,0.12004 0.1200351,0.14548 0.090633,0.16698 0.057279,0.18453 z"
       id="circle893"
       inkscape:connector-curvature="0"
       sodipodi:nodetypes="ccccccccccccccccccccccccccccccccc" />
    <path
       inkscape:connector-curvature="0"
       style="opacity:0.98000004;fill:none;fill-opacity:1;fill-rule:nonzero;stroke:#000000;stroke-width:0.20000002;stroke-linecap:butt;stroke-linejoin:bevel;stroke-miterlimit:4;stroke-dasharray:none;stroke-opacity:1;paint-order:normal"
       inkscape:transform-center-x="0.00325543"
       inkscape:transform-center-y="0.06813409"
       d="m 12.391834,285.93403 -0.509605,-0.0402 -0.192324,0.47364 -0.219969,-0.46145 -0.506332,0.0702 0.289631,-0.42124 -0.314006,-0.4034 0.509605,0.0402 0.192326,-0.47365 0.219967,0.46146 0.506331,-0.0703 -0.28963,0.42124 z"
       id="path897" />
    <path
       style="opacity:0.98000004;fill:none;fill-opacity:1;fill-rule:nonzero;stroke:#000000;stroke-width:0.2;stroke-linecap:butt;stroke-linejoin:bevel;stroke-miterlimit:4;stroke-dasharray:none;stroke-opacity:1;paint-order:normal"
       d="m 12.648548,285.54284 -0.01997,0.19811 -0.05728,0.18453 -0.09063,0.16698 -0.120035,0.14548 -0.145483,0.12004 -0.16698,0.0906 -0.184523,0.0573 -0.198112,0.02 -0.198113,-0.02 -0.184522,-0.0573 -0.16698,-0.0906 -0.145484,-0.12004 -0.120035,-0.14548 -0.09063,-0.16698 -0.05728,-0.18453 -0.01997,-0.19811 0.01997,-0.19811 0.05728,-0.18453 0.09063,-0.16698 0.120035,-0.14548 0.145484,-0.12004 0.16698,-0.0906 0.184522,-0.0573 0.198113,-0.02 0.198112,0.02 0.184523,0.0573 0.16698,0.0906 0.145483,0.12004 0.120035,0.14548 0.09063,0.16698 0.05728,0.18453 z"
       id="circle899"
       inkscape:connector-curvature="0"
       sodipodi:nodetypes="ccccccccccccccccccccccccccccccccc" />
    <path
       style="fill:none;stroke:#000000;stroke-width:0.26458332px;stroke-linecap:butt;stroke-linejoin:miter;stroke-opacity:1"
       d="M 6.4520026,285.5476 H 7.3419515"
       id="path903"
       inkscape:connector-curvature="0" />
    <path
       inkscape:connector-curvature="0"
       style="opacity:0.98000004;fill:none;fill-opacity:1;fill-rule:nonzero;stroke:#000000;stroke-width:0.20000002;stroke-linecap:butt;stroke-linejoin:bevel;stroke-miterlimit:4;stroke-dasharray:none;stroke-opacity:1;paint-order:normal"
       inkscape:transform-center-x="0.00325543"
       inkscape:transform-center-y="0.06813409"
       d="m 9.0723707,291.78169 -0.5096046,-0.0402 -0.1923237,0.47365 -0.2199694,-0.46146 -0.5063316,0.0703 0.2896306,-0.42125 -0.3140059,-0.4034 0.5096045,0.0402 0.192326,-0.47366 0.2199669,0.46147 0.5063317,-0.0703 -0.2896307,0.42124 z"
       id="path911" />
    <path
       style="opacity:0.98000004;fill:none;fill-opacity:1;fill-rule:nonzero;stroke:#000000;stroke-width:0.2;stroke-linecap:butt;stroke-linejoin:bevel;stroke-miterlimit:4;stroke-dasharray:none;stroke-opacity:1;paint-order:normal"
       d="m 9.3290867,291.39051 -0.019971,0.19811 -0.057279,0.18453 -0.090633,0.16698 -0.1200351,0.14548 -0.1454839,0.12004 -0.1669798,0.0906 -0.1845227,0.0573 -0.1981126,0.02 -0.1981126,-0.02 -0.1845227,-0.0573 -0.1669797,-0.0906 -0.145484,-0.12004 -0.1200351,-0.14548 -0.090633,-0.16698 -0.057278,-0.18453 -0.019971,-0.19811 0.019971,-0.19811 0.057278,-0.18453 0.090633,-0.16698 0.1200353,-0.14548 0.145484,-0.12004 0.1669797,-0.0906 0.1845227,-0.0573 0.1981126,-0.02 0.1981126,0.02 0.1845227,0.0573 0.1669798,0.0906 0.1454839,0.12004 0.1200351,0.14548 0.090633,0.16698 0.057279,0.18453 z"
       id="circle913"
       inkscape:connector-curvature="0"
       sodipodi:nodetypes="ccccccccccccccccccccccccccccccccc" />
    <path
       inkscape:connector-curvature="0"
       style="opacity:0.98000004;fill:none;fill-opacity:1;fill-rule:nonzero;stroke:#000000;stroke-width:0.20000002;stroke-linecap:butt;stroke-linejoin:bevel;stroke-miterlimit:4;stroke-dasharray:none;stroke-opacity:1;paint-order:normal"
       inkscape:transform-center-x="0.00325543"
       inkscape:transform-center-y="0.06813409"
       d="m 12.391834,291.80068 -0.509605,-0.0402 -0.192324,0.47364 -0.219969,-0.46145 -0.506332,0.0703 0.289631,-0.42124 -0.314006,-0.4034 0.509605,0.0402 0.192326,-0.47365 0.219967,0.46146 0.506331,-0.0702 -0.28963,0.42124 z"
       id="path917" />
    <path
       style="opacity:0.98000004;fill:none;fill-opacity:1;fill-rule:nonzero;stroke:#000000;stroke-width:0.2;stroke-linecap:butt;stroke-linejoin:bevel;stroke-miterlimit:4;stroke-dasharray:none;stroke-opacity:1;paint-order:normal"
       d="m 12.648548,291.40949 -0.01997,0.19811 -0.05728,0.18453 -0.09063,0.16698 -0.120035,0.14548 -0.145483,0.12004 -0.16698,0.0906 -0.184523,0.0573 -0.198112,0.02 -0.198113,-0.02 -0.184522,-0.0573 -0.16698,-0.0906 -0.145484,-0.12004 -0.120035,-0.14548 -0.09063,-0.16698 -0.05728,-0.18453 -0.01997,-0.19811 0.01997,-0.19811 0.05728,-0.18453 0.09063,-0.16698 0.120035,-0.14548 0.145484,-0.12004 0.16698,-0.0906 0.184522,-0.0573 0.198113,-0.02 0.198112,0.02 0.184523,0.0573 0.16698,0.0906 0.145483,0.12004 0.120035,0.14548 0.09063,0.16698 0.05728,0.18453 z"
       id="circle919"
       inkscape:connector-curvature="0"
       sodipodi:nodetypes="ccccccccccccccccccccccccccccccccc" />
    <path
       inkscape:connector-curvature="0"
       id="path923"
       d="M 6.4520026,291.41426 H 7.3419515"
       style="fill:none;stroke:#000000;stroke-width:0.26458332px;stroke-linecap:butt;stroke-linejoin:miter;stroke-opacity:1" />
  </g>
</svg>
